<?xml version="1.0" standalone="no"?>
<!DOCTYPE svg PUBLIC "-//W3C//DTD SVG 20010904//EN"
 "http://www.w3.org/TR/2001/REC-SVG-20010904/DTD/svg10.dtd">
<svg version="1.0" xmlns="http://www.w3.org/2000/svg"
 width="400.000000pt" height="400.000000pt" viewBox="0 0 400.000000 400.000000"
 preserveAspectRatio="xMidYMid meet">
<metadata>
Created by potrace 1.14, written by Peter Selinger 2001-2017
</metadata>
<g transform="translate(0.000000,400.000000) scale(0.100000,-0.100000)"
fill="#000000" stroke="none">
<path d="M2310 3017 c-19 -13 -75 -50 -125 -82 -52 -34 -129 -99 -182 -152
l-91 -92 -10 27 c-16 47 -60 89 -109 106 -61 21 -98 20 -152 -4 -24 -11 -45
-19 -46 -18 -1 2 -10 17 -19 33 -40 75 -118 125 -196 125 -96 0 -197 -81 -214
-172 l-7 -36 -62 1 c-76 2 -138 -25 -147 -63 -6 -26 -51 -54 -102 -65 -34 -7
-96 -67 -114 -111 -25 -60 -18 -126 18 -180 60 -88 63 -89 446 -92 317 -3 333
-2 330 15 -3 17 -26 18 -333 23 -326 5 -330 5 -363 28 -39 28 -72 89 -72 133
0 42 37 106 76 130 18 11 52 23 76 27 34 6 46 13 57 37 21 45 41 64 81 76 36
11 76 0 122 -33 24 -18 30 -6 32 60 1 45 7 68 28 99 30 46 96 83 148 83 78 0
158 -68 175 -147 9 -43 22 -50 48 -25 85 77 190 66 248 -27 34 -53 36 -76 8
-116 -34 -51 -101 -186 -125 -255 -22 -62 -25 -65 -61 -70 -71 -10 -83 -40
-16 -40 35 0 35 -1 28 -32 -4 -18 -13 -64 -19 -103 l-12 -70 -99 -6 c-157 -9
-250 -51 -340 -151 -180 -201 -87 -587 174 -727 85 -45 143 -61 246 -68 169
-11 322 36 424 132 26 25 53 45 59 45 6 0 32 -13 59 -30 74 -45 191 -73 284
-66 240 19 437 159 510 362 30 84 30 225 0 313 -12 35 -19 67 -14 72 4 4 24 9
43 11 23 2 35 8 35 18 0 11 -15 16 -59 18 -56 3 -63 6 -116 56 -43 39 -74 58
-124 74 -36 12 -77 22 -91 22 -13 0 -27 5 -31 12 -12 18 52 67 97 74 33 6 45
14 61 41 23 39 57 50 98 33 38 -16 46 -9 53 41 10 79 77 134 150 125 51 -6 83
-28 107 -76 11 -22 26 -40 32 -40 6 0 31 9 54 21 31 15 52 18 78 13 39 -7 82
-49 92 -89 7 -28 -11 -65 -31 -65 -22 0 -51 -48 -37 -62 8 -8 17 -1 32 26 12
20 29 36 38 36 38 -2 88 -36 106 -74 17 -36 18 -43 5 -79 -23 -65 -55 -81
-167 -87 -77 -4 -97 -8 -97 -20 0 -12 18 -16 93 -18 117 -3 166 17 202 82 41
76 9 180 -69 220 -18 10 -31 28 -39 55 -28 93 -102 135 -193 112 l-51 -13 -33
36 c-98 107 -261 75 -305 -60 -11 -31 -15 -34 -51 -34 -32 0 -48 -7 -83 -40
-24 -22 -49 -40 -55 -40 -29 0 -93 -44 -116 -80 -16 -26 -34 -41 -53 -45 -15
-3 -56 -12 -92 -21 -126 -32 -112 -39 -154 73 -21 54 -42 108 -47 121 -16 40
-39 192 -39 257 0 89 31 245 49 245 5 0 12 -12 16 -27 11 -44 114 -134 240
-210 66 -40 140 -93 165 -118 48 -49 64 -55 75 -27 13 32 18 266 6 327 -16 86
-63 177 -118 225 -86 75 -251 105 -323 57z m165 -45 c-3 -3 -11 0 -18 7 -9 10
-8 11 6 5 10 -3 15 -9 12 -12z m49 -16 c-3 -8 -12 -12 -21 -9 -12 5 -12 7 -1
14 20 13 28 11 22 -5z m-109 -16 c3 -5 1 -10 -4 -10 -6 0 -11 5 -11 10 0 6 2
10 4 10 3 0 8 -4 11 -10z m-191 -87 c-60 -153 -75 -274 -55 -427 12 -85 55
-230 100 -331 l21 -47 -23 -6 c-12 -3 -61 -26 -110 -50 l-88 -45 -48 26 c-68
38 -153 57 -249 57 -75 0 -83 2 -78 18 3 9 10 40 16 67 6 28 15 67 21 88 l10
37 81 0 c44 0 99 6 122 12 76 23 136 109 136 194 0 54 -44 128 -94 160 -25 16
-46 34 -46 40 0 31 267 274 301 274 5 0 -3 -30 -17 -67z m371 -23 c3 -5 -1
-10 -9 -10 -8 0 -18 5 -21 10 -3 6 1 10 9 10 8 0 18 -4 21 -10z m-275 -45 c0
-8 -2 -15 -4 -15 -2 0 -6 7 -10 15 -3 8 -1 15 4 15 6 0 10 -7 10 -15z m287
-177 c-3 -8 -6 -5 -6 6 -1 11 2 17 5 13 3 -3 4 -12 1 -19z m-592 -89 c27 -46
27 -128 -1 -165 -42 -57 -69 -69 -165 -72 -85 -4 -89 -3 -89 17 0 28 92 224
126 268 l26 34 41 -24 c23 -14 51 -40 62 -58z"/>
<path d="M1227 2630 c-29 -35 -39 -40 -75 -40 -42 0 -46 -2 -97 -62 -8 -10
-29 -18 -45 -18 -38 0 -80 -39 -80 -75 0 -14 5 -25 10 -25 6 0 10 9 10 20 0
31 36 60 74 60 36 0 66 21 66 46 0 19 41 34 90 34 34 0 42 4 56 33 21 41 31
47 77 47 20 0 37 5 37 10 0 6 -20 10 -44 10 -39 0 -48 -5 -79 -40z"/>
<path d="M3084 1949 c-10 -17 13 -36 27 -22 12 12 4 33 -11 33 -5 0 -12 -5
-16 -11z"/>
<path d="M3170 1940 c0 -18 5 -21 33 -18 20 2 32 8 32 18 0 10 -12 16 -32 18
-28 3 -33 0 -33 -18z"/>
</g>
</svg>
